<svg width="20" height="20" viewBox="0 0 20 20" fill="none" xmlns="http://www.w3.org/2000/svg">
<path d="M9.1665 5H10.8332V3.33333H9.1665V5ZM9.99984 10C8.94428 10 7.93734 9.78125 6.979 9.34375C6.02067 8.90625 5.08317 8.41667 4.1665 7.875V6.66667C4.1665 6.20833 4.3297 5.81597 4.65609 5.48958C4.98248 5.16319 5.37484 5 5.83317 5H7.49984V2.5C7.49984 2.26389 7.5797 2.06597 7.73942 1.90625C7.89914 1.74653 8.09706 1.66667 8.33317 1.66667H11.6665C11.9026 1.66667 12.1005 1.74653 12.2603 1.90625C12.42 2.06597 12.4998 2.26389 12.4998 2.5V5H14.1665C14.6248 5 15.0172 5.16319 15.3436 5.48958C15.67 5.81597 15.8332 6.20833 15.8332 6.66667V7.875C14.9165 8.41667 13.979 8.90625 13.0207 9.34375C12.0623 9.78125 11.0554 10 9.99984 10ZM5.83317 17.5C5.37484 17.5 4.98248 17.3368 4.65609 17.0104C4.3297 16.684 4.1665 16.2917 4.1665 15.8333V9.75C4.94428 10.2222 5.74636 10.625 6.57275 10.9583C7.39914 11.2917 8.26373 11.5139 9.1665 11.625V11.6667C9.1665 11.9028 9.24636 12.1007 9.40609 12.2604C9.56581 12.4201 9.76373 12.5 9.99984 12.5C10.2359 12.5 10.4339 12.4201 10.5936 12.2604C10.7533 12.1007 10.8332 11.9028 10.8332 11.6667V11.625C11.7359 11.5139 12.6005 11.2917 13.4269 10.9583C14.2533 10.625 15.0554 10.2222 15.8332 9.75V15.8333C15.8332 16.2917 15.67 16.684 15.3436 17.0104C15.0172 17.3368 14.6248 17.5 14.1665 17.5C14.1665 17.7361 14.0866 17.934 13.9269 18.0938C13.7672 18.2535 13.5693 18.3333 13.3332 18.3333C13.1109 18.3333 12.9547 18.2326 12.8644 18.0312C12.7741 17.8299 12.6526 17.6528 12.4998 17.5H7.49984C7.49984 17.7361 7.41998 17.934 7.26025 18.0938C7.10053 18.2535 6.90261 18.3333 6.6665 18.3333C6.44428 18.3333 6.28803 18.2326 6.19775 18.0312C6.10748 17.8299 5.98595 17.6528 5.83317 17.5Z" fill="#7F8191"/>
</svg>
