<svg width="20" height="20" viewBox="0 0 20 20" fill="none" xmlns="http://www.w3.org/2000/svg">
<path d="M3.33337 15.8333V8.33333C3.33337 8.06945 3.3924 7.81945 3.51046 7.58333C3.62851 7.34722 3.79171 7.15278 4.00004 7L9.00004 3.25C9.29171 3.02778 9.62504 2.91667 10 2.91667C10.375 2.91667 10.7084 3.02778 11 3.25L16 7C16.2084 7.15278 16.3716 7.34722 16.4896 7.58333C16.6077 7.81945 16.6667 8.06945 16.6667 8.33333V15.8333C16.6667 16.2917 16.5035 16.684 16.1771 17.0104C15.8507 17.3368 15.4584 17.5 15 17.5H12.5C12.2639 17.5 12.066 17.4201 11.9063 17.2604C11.7466 17.1007 11.6667 16.9028 11.6667 16.6667V12.5C11.6667 12.2639 11.5868 12.066 11.4271 11.9063C11.2674 11.7465 11.0695 11.6667 10.8334 11.6667H9.16671C8.9306 11.6667 8.73268 11.7465 8.57296 11.9063C8.41323 12.066 8.33337 12.2639 8.33337 12.5V16.6667C8.33337 16.9028 8.25351 17.1007 8.09379 17.2604C7.93407 17.4201 7.73615 17.5 7.50004 17.5H5.00004C4.54171 17.5 4.14935 17.3368 3.82296 17.0104C3.49657 16.684 3.33337 16.2917 3.33337 15.8333Z" fill="#7F8191"/>
</svg>
