<svg width="20" height="20" viewBox="0 0 20 20" fill="none" xmlns="http://www.w3.org/2000/svg">
<path d="M4.87496 14.25C5.58329 13.7083 6.37496 13.2813 7.24996 12.9688C8.12496 12.6563 9.04163 12.5 9.99996 12.5C10.9583 12.5 11.875 12.6563 12.75 12.9688C13.625 13.2813 14.4166 13.7083 15.125 14.25C15.6111 13.6806 15.9895 13.0347 16.2604 12.3125C16.5312 11.5903 16.6666 10.8195 16.6666 10C16.6666 8.15278 16.0173 6.57987 14.7187 5.28126C13.4201 3.98264 11.8472 3.33334 9.99996 3.33334C8.15274 3.33334 6.57982 3.98264 5.28121 5.28126C3.9826 6.57987 3.33329 8.15278 3.33329 10C3.33329 10.8195 3.46871 11.5903 3.73954 12.3125C4.01038 13.0347 4.38885 13.6806 4.87496 14.25ZM9.99996 10.8333C9.18052 10.8333 8.48954 10.5521 7.92704 9.98959C7.36454 9.42709 7.08329 8.73612 7.08329 7.91667C7.08329 7.09723 7.36454 6.40626 7.92704 5.84376C8.48954 5.28126 9.18052 5.00001 9.99996 5.00001C10.8194 5.00001 11.5104 5.28126 12.0729 5.84376C12.6354 6.40626 12.9166 7.09723 12.9166 7.91667C12.9166 8.73612 12.6354 9.42709 12.0729 9.98959C11.5104 10.5521 10.8194 10.8333 9.99996 10.8333ZM9.99996 18.3333C8.84718 18.3333 7.76385 18.1146 6.74996 17.6771C5.73607 17.2396 4.85413 16.6458 4.10413 15.8958C3.35413 15.1458 2.76038 14.2639 2.32288 13.25C1.88538 12.2361 1.66663 11.1528 1.66663 10C1.66663 8.84723 1.88538 7.76389 2.32288 6.75001C2.76038 5.73612 3.35413 4.85417 4.10413 4.10417C4.85413 3.35417 5.73607 2.76042 6.74996 2.32292C7.76385 1.88542 8.84718 1.66667 9.99996 1.66667C11.1527 1.66667 12.2361 1.88542 13.25 2.32292C14.2638 2.76042 15.1458 3.35417 15.8958 4.10417C16.6458 4.85417 17.2395 5.73612 17.677 6.75001C18.1145 7.76389 18.3333 8.84723 18.3333 10C18.3333 11.1528 18.1145 12.2361 17.677 13.25C17.2395 14.2639 16.6458 15.1458 15.8958 15.8958C15.1458 16.6458 14.2638 17.2396 13.25 17.6771C12.2361 18.1146 11.1527 18.3333 9.99996 18.3333Z" fill="#7F8191"/>
</svg>
