<svg width="12" height="18" viewBox="0 0 12 18" fill="none" xmlns="http://www.w3.org/2000/svg">
<path d="M5.16675 4H6.83341V2.33333H5.16675V4ZM6.00008 9C4.94453 9 3.93758 8.78125 2.97925 8.34375C2.02091 7.90625 1.08341 7.41667 0.166748 6.875V5.66667C0.166748 5.20833 0.329943 4.81597 0.656331 4.48958C0.98272 4.16319 1.37508 4 1.83341 4H3.50008V1.5C3.50008 1.26389 3.57994 1.06597 3.73966 0.906249C3.89939 0.746527 4.0973 0.666666 4.33341 0.666666H7.66675C7.90286 0.666666 8.10078 0.746527 8.2605 0.906249C8.42022 1.06597 8.50008 1.26389 8.50008 1.5V4H10.1667C10.6251 4 11.0174 4.16319 11.3438 4.48958C11.6702 4.81597 11.8334 5.20833 11.8334 5.66667V6.875C10.9167 7.41667 9.97925 7.90625 9.02091 8.34375C8.06258 8.78125 7.05564 9 6.00008 9ZM1.83341 16.5C1.37508 16.5 0.98272 16.3368 0.656331 16.0104C0.329943 15.684 0.166748 15.2917 0.166748 14.8333V8.75C0.944526 9.22222 1.74661 9.625 2.573 9.95833C3.39939 10.2917 4.26397 10.5139 5.16675 10.625V10.6667C5.16675 10.9028 5.24661 11.1007 5.40633 11.2604C5.56605 11.4201 5.76397 11.5 6.00008 11.5C6.23619 11.5 6.43411 11.4201 6.59383 11.2604C6.75355 11.1007 6.83341 10.9028 6.83341 10.6667V10.625C7.73619 10.5139 8.60078 10.2917 9.42717 9.95833C10.2536 9.625 11.0556 9.22222 11.8334 8.75V14.8333C11.8334 15.2917 11.6702 15.684 11.3438 16.0104C11.0174 16.3368 10.6251 16.5 10.1667 16.5C10.1667 16.7361 10.0869 16.934 9.92717 17.0938C9.76744 17.2535 9.56953 17.3333 9.33341 17.3333C9.11119 17.3333 8.95494 17.2326 8.86466 17.0312C8.77439 16.8299 8.65286 16.6528 8.50008 16.5H3.50008C3.50008 16.7361 3.42022 16.934 3.2605 17.0938C3.10078 17.2535 2.90286 17.3333 2.66675 17.3333C2.44453 17.3333 2.28828 17.2326 2.198 17.0312C2.10772 16.8299 1.98619 16.6528 1.83341 16.5Z" fill="#24A3B6"/>
</svg>
