<svg width="20" height="20" viewBox="0 0 20 20" fill="none" xmlns="http://www.w3.org/2000/svg">
<path d="M3.3335 15.8333V8.33333C3.3335 8.06945 3.39252 7.81945 3.51058 7.58333C3.62863 7.34722 3.79183 7.15278 4.00016 7L9.00016 3.25C9.29183 3.02778 9.62516 2.91667 10.0002 2.91667C10.3752 2.91667 10.7085 3.02778 11.0002 3.25L16.0002 7C16.2085 7.15278 16.3717 7.34722 16.4897 7.58333C16.6078 7.81945 16.6668 8.06945 16.6668 8.33333V15.8333C16.6668 16.2917 16.5036 16.684 16.1772 17.0104C15.8509 17.3368 15.4585 17.5 15.0002 17.5H12.5002C12.2641 17.5 12.0661 17.4201 11.9064 17.2604C11.7467 17.1007 11.6668 16.9028 11.6668 16.6667V12.5C11.6668 12.2639 11.587 12.066 11.4272 11.9063C11.2675 11.7465 11.0696 11.6667 10.8335 11.6667H9.16683C8.93072 11.6667 8.7328 11.7465 8.57308 11.9063C8.41336 12.066 8.3335 12.2639 8.3335 12.5V16.6667C8.3335 16.9028 8.25363 17.1007 8.09391 17.2604C7.93419 17.4201 7.73627 17.5 7.50016 17.5H5.00016C4.54183 17.5 4.14947 17.3368 3.82308 17.0104C3.49669 16.684 3.3335 16.2917 3.3335 15.8333Z" fill="#24A3B6"/>
</svg>
