<svg width="16" height="16" viewBox="0 0 16 16" fill="none" xmlns="http://www.w3.org/2000/svg">
<path d="M6.97913 6.66667L1.7708 4.41667C1.43746 4.26389 1.2326 4.01736 1.15621 3.67709C1.07982 3.33681 1.17357 3.03472 1.43746 2.77084L1.7708 2.4375C1.88191 2.32639 2.01732 2.24306 2.17704 2.1875C2.33677 2.13195 2.49996 2.11806 2.66663 2.14584L10.1666 3.47917L12.75 0.875003C13.0694 0.555558 13.4618 0.395836 13.927 0.395836C14.3923 0.395836 14.7847 0.555558 15.1041 0.875003C15.4236 1.19445 15.5833 1.58681 15.5833 2.05209C15.5833 2.51736 15.4236 2.90972 15.1041 3.22917L12.5208 5.83334L13.8333 13.3125C13.8611 13.4792 13.8507 13.6458 13.802 13.8125C13.7534 13.9792 13.6736 14.1181 13.5625 14.2292L13.2291 14.5417C12.9652 14.8056 12.6597 14.9028 12.3125 14.8333C11.9652 14.7639 11.7152 14.5625 11.5625 14.2292L9.33329 9.02084L7.2083 11.125L7.66663 13.7083C7.69441 13.8472 7.68746 13.9826 7.6458 14.1146C7.60413 14.2465 7.53468 14.3611 7.43746 14.4583L7.08329 14.8125C6.88885 15.0069 6.64927 15.0833 6.36455 15.0417C6.07982 15 5.86802 14.8542 5.72913 14.6042L4.2083 11.7917L1.3958 10.2708C1.1458 10.1319 0.999962 9.92014 0.958295 9.63542C0.916628 9.3507 0.993017 9.11111 1.18746 8.91667L1.54163 8.5625C1.63885 8.46528 1.75343 8.39584 1.88538 8.35417C2.01732 8.3125 2.15274 8.30556 2.29163 8.33334L4.85413 8.77084L6.97913 6.66667Z" fill="#24A3B6"/>
</svg>
