<svg width="20" height="20" viewBox="0 0 20 20" fill="none" xmlns="http://www.w3.org/2000/svg">
<rect width="20" height="20" fill="#F5F5F5"/>
<g id="&#235;&#161;&#156;&#234;&#183;&#184;&#236;&#157;&#184; + &#236;&#177;&#153;&#234;&#184;&#184; &#234;&#178;&#131;&#235;&#147;&#164; &#237;&#142;&#152;&#236;&#157;&#180;&#236;&#167;&#128;">
<path d="M-298 -912C-298 -913.105 -297.105 -914 -296 -914H5075C5076.1 -914 5077 -913.105 5077 -912V4754C5077 4755.1 5076.1 4756 5075 4756H-296C-297.104 4756 -298 4755.1 -298 4754V-912Z" fill="#444444"/>
<path d="M-296 -913H5075V-915H-296V-913ZM5076 -912V4754H5078V-912H5076ZM5075 4755H-296V4757H5075V4755ZM-297 4754V-912H-299V4754H-297ZM-296 4755C-296.552 4755 -297 4754.55 -297 4754H-299C-299 4755.66 -297.657 4757 -296 4757V4755ZM5076 4754C5076 4754.55 5075.55 4755 5075 4755V4757C5076.66 4757 5078 4755.66 5078 4754H5076ZM5075 -913C5075.55 -913 5076 -912.552 5076 -912H5078C5078 -913.657 5076.66 -915 5075 -915V-913ZM-296 -915C-297.657 -915 -299 -913.657 -299 -912H-297C-297 -912.552 -296.552 -913 -296 -913V-915Z" fill="white" fill-opacity="0.1"/>
<g id="8_&#235;&#179;&#180;&#234;&#184;&#176;&#235;&#170;&#168;&#235;&#147;&#156;" clip-path="url(#clip0_236_467)">
<rect width="1440" height="1024" transform="translate(-36 -534)" fill="#F5F5F6"/>
<g id="Sidebar">
<g id="Frame 1171280872">
<g id="Frame 1171280870">
<g id="travel">
<path id="Vector" d="M8.97913 8.66667L3.7708 6.41667C3.43746 6.26389 3.2326 6.01736 3.15621 5.67709C3.07982 5.33681 3.17357 5.03472 3.43746 4.77084L3.7708 4.4375C3.88191 4.32639 4.01732 4.24306 4.17704 4.1875C4.33677 4.13195 4.49996 4.11806 4.66663 4.14584L12.1666 5.47917L14.75 2.875C15.0694 2.55556 15.4618 2.39584 15.927 2.39584C16.3923 2.39584 16.7847 2.55556 17.1041 2.875C17.4236 3.19445 17.5833 3.58681 17.5833 4.05209C17.5833 4.51736 17.4236 4.90972 17.1041 5.22917L14.5208 7.83334L15.8333 15.3125C15.8611 15.4792 15.8507 15.6458 15.802 15.8125C15.7534 15.9792 15.6736 16.1181 15.5625 16.2292L15.2291 16.5417C14.9652 16.8056 14.6597 16.9028 14.3125 16.8333C13.9652 16.7639 13.7152 16.5625 13.5625 16.2292L11.3333 11.0208L9.2083 13.125L9.66663 15.7083C9.69441 15.8472 9.68746 15.9826 9.6458 16.1146C9.60413 16.2465 9.53468 16.3611 9.43746 16.4583L9.08329 16.8125C8.88885 17.0069 8.64927 17.0833 8.36455 17.0417C8.07982 17 7.86802 16.8542 7.72913 16.6042L6.2083 13.7917L3.3958 12.2708C3.1458 12.1319 2.99996 11.9201 2.9583 11.6354C2.91663 11.3507 2.99302 11.1111 3.18746 10.9167L3.54163 10.5625C3.63885 10.4653 3.75343 10.3958 3.88538 10.3542C4.01732 10.3125 4.15274 10.3056 4.29163 10.3333L6.85413 10.7708L8.97913 8.66667Z" fill="#7F8191"/>
</g>
</g>
</g>
</g>
</g>
</g>
<defs>
<clipPath id="clip0_236_467">
<rect width="1440" height="1024" fill="white" transform="translate(-36 -534)"/>
</clipPath>
</defs>
</svg>
