<svg width="40" height="40" viewBox="0 0 40 40" fill="none" xmlns="http://www.w3.org/2000/svg">
<path d="M18.3335 10H21.6668V6.66668H18.3335V10ZM20.0002 20C17.8891 20 15.8752 19.5625 13.9585 18.6875C12.0418 17.8125 10.1668 16.8333 8.3335 15.75V13.3333C8.3335 12.4167 8.65989 11.632 9.31266 10.9792C9.96544 10.3264 10.7502 10 11.6668 10H15.0002V5.00001C15.0002 4.52779 15.1599 4.13195 15.4793 3.81251C15.7988 3.49307 16.1946 3.33334 16.6668 3.33334H23.3335C23.8057 3.33334 24.2016 3.49307 24.521 3.81251C24.8404 4.13195 25.0002 4.52779 25.0002 5.00001V10H28.3335C29.2502 10 30.0349 10.3264 30.6877 10.9792C31.3404 11.632 31.6668 12.4167 31.6668 13.3333V15.75C29.8335 16.8333 27.9585 17.8125 26.0418 18.6875C24.1252 19.5625 22.1113 20 20.0002 20ZM11.6668 35C10.7502 35 9.96544 34.6736 9.31266 34.0208C8.65989 33.3681 8.3335 32.5833 8.3335 31.6667V19.5C9.88905 20.4445 11.4932 21.25 13.146 21.9167C14.7988 22.5833 16.5279 23.0278 18.3335 23.25V23.3333C18.3335 23.8056 18.4932 24.2014 18.8127 24.5208C19.1321 24.8403 19.5279 25 20.0002 25C20.4724 25 20.8682 24.8403 21.1877 24.5208C21.5071 24.2014 21.6668 23.8056 21.6668 23.3333V23.25C23.4724 23.0278 25.2016 22.5833 26.8543 21.9167C28.5071 21.25 30.1113 20.4445 31.6668 19.5V31.6667C31.6668 32.5833 31.3404 33.3681 30.6877 34.0208C30.0349 34.6736 29.2502 35 28.3335 35C28.3335 35.4722 28.1738 35.8681 27.8543 36.1875C27.5349 36.507 27.1391 36.6667 26.6668 36.6667C26.2224 36.6667 25.9099 36.4653 25.7293 36.0625C25.5488 35.6597 25.3057 35.3056 25.0002 35H15.0002C15.0002 35.4722 14.8404 35.8681 14.521 36.1875C14.2016 36.507 13.8057 36.6667 13.3335 36.6667C12.8891 36.6667 12.5766 36.4653 12.396 36.0625C12.2154 35.6597 11.9724 35.3056 11.6668 35Z" fill="#C58509"/>
</svg>
