<svg width="40" height="40" viewBox="0 0 40 40" fill="none" xmlns="http://www.w3.org/2000/svg">
<path d="M6.6665 31.6667V16.6667C6.6665 16.1389 6.78456 15.6389 7.02067 15.1667C7.25678 14.6945 7.58317 14.3056 7.99984 14L17.9998 6.50001C18.5832 6.05557 19.2498 5.83334 19.9998 5.83334C20.7498 5.83334 21.4165 6.05557 21.9998 6.50001L31.9998 14C32.4165 14.3056 32.7429 14.6945 32.979 15.1667C33.2151 15.6389 33.3332 16.1389 33.3332 16.6667V31.6667C33.3332 32.5833 33.0068 33.3681 32.354 34.0208C31.7012 34.6736 30.9165 35 29.9998 35H24.9998C24.5276 35 24.1318 34.8403 23.8123 34.5208C23.4929 34.2014 23.3332 33.8056 23.3332 33.3333V25C23.3332 24.5278 23.1734 24.132 22.854 23.8125C22.5346 23.4931 22.1387 23.3333 21.6665 23.3333H18.3332C17.8609 23.3333 17.4651 23.4931 17.1457 23.8125C16.8262 24.132 16.6665 24.5278 16.6665 25V33.3333C16.6665 33.8056 16.5068 34.2014 16.1873 34.5208C15.8679 34.8403 15.4721 35 14.9998 35H9.99984C9.08317 35 8.29845 34.6736 7.64567 34.0208C6.99289 33.3681 6.6665 32.5833 6.6665 31.6667Z" fill="#24A3B6"/>
</svg>
