<svg width="20" height="20" viewBox="0 0 20 20" fill="none" xmlns="http://www.w3.org/2000/svg">
<path d="M10.0001 13.5C10.9723 13.5 11.7987 13.1597 12.4792 12.4792C13.1598 11.7986 13.5001 10.9722 13.5001 10C13.5001 9.02778 13.1598 8.20139 12.4792 7.52083C11.7987 6.84028 10.9723 6.5 10.0001 6.5C9.02786 6.5 8.20147 6.84028 7.52092 7.52083C6.84036 8.20139 6.50008 9.02778 6.50008 10C6.50008 10.9722 6.84036 11.7986 7.52092 12.4792C8.20147 13.1597 9.02786 13.5 10.0001 13.5ZM10.0001 12C9.44453 12 8.9723 11.8056 8.58342 11.4167C8.19453 11.0278 8.00008 10.5556 8.00008 10C8.00008 9.44444 8.19453 8.97222 8.58342 8.58333C8.9723 8.19444 9.44453 8 10.0001 8C10.5556 8 11.0279 8.19444 11.4167 8.58333C11.8056 8.97222 12.0001 9.44444 12.0001 10C12.0001 10.5556 11.8056 11.0278 11.4167 11.4167C11.0279 11.8056 10.5556 12 10.0001 12ZM10.0001 16C8.19453 16 6.5348 15.5174 5.02091 14.5521C3.50703 13.5868 2.30564 12.3125 1.41675 10.7292C1.3473 10.6181 1.29869 10.5016 1.27091 10.3798C1.24314 10.258 1.22925 10.133 1.22925 10.0048C1.22925 9.8766 1.24314 9.75 1.27091 9.625C1.29869 9.5 1.3473 9.38194 1.41675 9.27083C2.30564 7.6875 3.50703 6.41319 5.02091 5.44792C6.5348 4.48264 8.19453 4 10.0001 4C11.8056 4 13.4654 4.48264 14.9792 5.44792C16.4931 6.41319 17.6945 7.6875 18.5834 9.27083C18.6529 9.38194 18.7015 9.4984 18.7292 9.62021C18.757 9.74201 18.7709 9.86701 18.7709 9.99521C18.7709 10.1234 18.757 10.25 18.7292 10.375C18.7015 10.5 18.6529 10.6181 18.5834 10.7292C17.6945 12.3125 16.4931 13.5868 14.9792 14.5521C13.4654 15.5174 11.8056 16 10.0001 16Z" fill="#AAACB6"/>
</svg>
