<svg width="40" height="40" viewBox="0 0 40 40" fill="none" xmlns="http://www.w3.org/2000/svg">
<path d="M17.9583 17.3333L7.54159 12.8333C6.87492 12.5278 6.4652 12.0347 6.31242 11.3542C6.15965 10.6736 6.34715 10.0694 6.87492 9.54166L7.54159 8.87499C7.76381 8.65277 8.03465 8.4861 8.35409 8.37499C8.67353 8.26388 8.99992 8.2361 9.33326 8.29166L24.3333 10.9583L29.4999 5.74999C30.1388 5.1111 30.9235 4.79166 31.8541 4.79166C32.7846 4.79166 33.5694 5.1111 34.2083 5.74999C34.8471 6.38888 35.1666 7.1736 35.1666 8.10416C35.1666 9.03471 34.8471 9.81943 34.2083 10.4583L29.0416 15.6667L31.6666 30.625C31.7221 30.9583 31.7013 31.2917 31.6041 31.625C31.5069 31.9583 31.3471 32.2361 31.1249 32.4583L30.4583 33.0833C29.9305 33.6111 29.3194 33.8055 28.6249 33.6667C27.9305 33.5278 27.4305 33.125 27.1249 32.4583L22.6666 22.0417L18.4166 26.25L19.3333 31.4167C19.3888 31.6944 19.3749 31.9653 19.2916 32.2292C19.2083 32.493 19.0694 32.7222 18.8749 32.9167L18.1666 33.625C17.7777 34.0139 17.2985 34.1667 16.7291 34.0833C16.1596 34 15.736 33.7083 15.4583 33.2083L12.4166 27.5833L6.79159 24.5417C6.29159 24.2639 5.99992 23.8403 5.91659 23.2708C5.83326 22.7014 5.98603 22.2222 6.37492 21.8333L7.08326 21.125C7.2777 20.9305 7.50687 20.7917 7.77076 20.7083C8.03465 20.625 8.30548 20.6111 8.58326 20.6667L13.7083 21.5417L17.9583 17.3333Z" fill="#24A3B6"/>
</svg>
