<svg width="32" height="32" viewBox="0 0 32 32" fill="none" xmlns="http://www.w3.org/2000/svg">
<rect x="0.5" y="0.5" width="31" height="31" rx="7.5" fill="white"/>
<rect x="0.5" y="0.5" width="31" height="31" rx="7.5" stroke="#E5E6E8"/>
<path d="M15.1166 16.8833H11.8963C11.6509 16.8833 11.4424 16.7974 11.2706 16.6256C11.0988 16.4539 11.0129 16.2454 11.0129 15.9999C11.0129 15.7545 11.0988 15.5459 11.2706 15.3743C11.4424 15.2025 11.6509 15.1166 11.8963 15.1166H15.1166V11.8963C15.1166 11.6509 15.2025 11.4424 15.3743 11.2706C15.5459 11.0988 15.7545 11.0129 15.9999 11.0129C16.2454 11.0129 16.4539 11.0988 16.6256 11.2706C16.7974 11.4424 16.8833 11.6509 16.8833 11.8963V15.1166H20.1036C20.3489 15.1166 20.5575 15.2025 20.7293 15.3743C20.9011 15.5459 20.9869 15.7545 20.9869 15.9999C20.9869 16.2454 20.9011 16.4539 20.7293 16.6256C20.5575 16.7974 20.3489 16.8833 20.1036 16.8833H16.8833V20.1036C16.8833 20.3489 16.7974 20.5575 16.6256 20.7293C16.4539 20.9011 16.2454 20.9869 15.9999 20.9869C15.7545 20.9869 15.5459 20.9011 15.3743 20.7293C15.2025 20.5575 15.1166 20.3489 15.1166 20.1036V16.8833Z" fill="#393940"/>
</svg>
