<svg width="32" height="32" viewBox="0 0 32 32" fill="none" xmlns="http://www.w3.org/2000/svg">
<rect x="0.5" y="0.5" width="31" height="31" rx="7.5" fill="white"/>
<rect x="0.5" y="0.5" width="31" height="31" rx="7.5" stroke="#E5E6E8"/>
<path d="M11.8963 16.8834C11.6509 16.8834 11.4424 16.7975 11.2706 16.6257C11.0988 16.454 11.0129 16.2455 11.0129 16C11.0129 15.7546 11.0988 15.546 11.2706 15.3744C11.4424 15.2026 11.6509 15.1167 11.8963 15.1167H20.1036C20.3489 15.1167 20.5575 15.2026 20.7293 15.3744C20.9011 15.546 20.9869 15.7546 20.9869 16C20.9869 16.2455 20.9011 16.454 20.7293 16.6257C20.5575 16.7975 20.3489 16.8834 20.1036 16.8834H11.8963Z" fill="#393940"/>
</svg>
