<svg width="242" height="61" viewBox="0 0 242 61" fill="none" xmlns="http://www.w3.org/2000/svg">
<g id="Vector">
<path d="M17.3486 12.6734H25.5191V5.2457H17.3486V12.6734ZM21.4339 30.4257C17.6705 30.4257 14.0433 29.7944 10.5523 28.5317C7.06122 27.2689 3.75588 25.5729 0.63623 23.4437V17.1301C0.63623 15.8921 1.06951 14.8399 1.93608 13.9733C2.80265 13.1067 3.85492 12.6734 5.09287 12.6734H12.892V3.38877C12.892 2.69551 13.152 2.08892 13.6719 1.56897C14.1918 1.04903 14.7984 0.789062 15.4917 0.789062H27.3761C28.0693 0.789062 28.6759 1.04903 29.1959 1.56897C29.7158 2.08892 29.9758 2.69551 29.9758 3.38877V12.6734H37.7749C39.0129 12.6734 40.0651 13.1067 40.9317 13.9733C41.7983 14.8399 42.2315 15.8921 42.2315 17.1301V23.4437C39.1119 25.5729 35.8066 27.2689 32.3155 28.5317C28.8245 29.7944 25.1973 30.4257 21.4339 30.4257ZM5.09287 57.9826V56.8685C3.85492 56.8685 2.80265 56.4352 1.93608 55.5686C1.06951 54.702 0.63623 53.6498 0.63623 52.4118V27.9003C3.31021 29.9801 6.21941 31.6142 9.36382 32.8026C12.5082 33.991 15.7888 34.6843 19.2056 34.8824V35.6994C19.2056 36.3432 19.416 36.8755 19.8369 37.2964C20.2578 37.7173 20.7902 37.9277 21.4339 37.9277C22.0776 37.9277 22.6099 37.7173 23.0308 37.2964C23.4518 36.8755 23.6622 36.3432 23.6622 35.6994V34.8824C27.079 34.6843 30.3595 33.991 33.504 32.8026C36.6484 31.6142 39.5576 29.9801 42.2315 27.9003V52.4118C42.2315 53.6498 41.7983 54.702 40.9317 55.5686C40.0651 56.4352 39.0129 56.8685 37.7749 56.8685V57.9826C37.7749 58.6264 37.5645 59.1587 37.1435 59.5796C36.7226 60.0005 36.1903 60.2109 35.5466 60.2109C34.9028 60.2109 34.3705 60.0005 33.9496 59.5796C33.5287 59.1587 33.3183 58.6264 33.3183 57.9826V56.8685H9.54951V57.9826C9.54951 58.6264 9.33906 59.1587 8.91815 59.5796C8.49725 60.0005 7.96493 60.2109 7.32119 60.2109C6.67745 60.2109 6.14513 60.0005 5.72423 59.5796C5.30332 59.1587 5.09287 58.6264 5.09287 57.9826Z" fill="url(#paint0_linear_352_681)"/>
<path d="M98.4363 56.6308H91.4662V42.6904H84.597C83.1322 47.6402 78.5865 50.7718 72.2729 50.7718C64.4441 50.7718 59.3932 45.9229 59.3932 38.9023V24.5578C59.3932 17.5371 64.4441 12.6883 72.2729 12.6883C78.2329 12.6883 82.5766 15.5168 84.2939 19.9615H91.4662V12.0317H98.4363V56.6308ZM78.1824 38.1446V25.3154C78.1824 21.3253 76.2126 18.8503 72.2729 18.8503C68.3332 18.8503 66.3634 21.3253 66.3634 25.3154V38.1446C66.3634 42.1348 68.3332 44.6097 72.2729 44.6097C76.2126 44.6097 78.1824 42.1348 78.1824 38.1446ZM91.4662 36.2253V26.4266H85.1526V36.2253H91.4662Z" fill="url(#paint1_linear_352_681)"/>
<path d="M137.274 56.5298H119.494C113.686 56.5298 109.443 53.6508 109.443 48.2463C109.443 42.8419 113.686 39.9629 119.494 39.9629H137.274C143.082 39.9629 147.325 42.8419 147.325 48.2463C147.325 53.6508 143.082 56.5298 137.274 56.5298ZM146.668 38.9023H139.799V29.0026H136.112V38.2456H129.344V12.5368H136.112V22.3354H139.799V12.0317H146.668V38.9023ZM118.434 37.6395H113.231C108.231 37.6395 104.847 34.5585 104.847 29.7602C104.847 24.9619 108.231 21.8809 113.231 21.8809H118.434C123.434 21.8809 126.818 24.9619 126.818 29.7602C126.818 34.5585 123.434 37.6395 118.434 37.6395ZM127.323 20.1636H104.089V14.6076H112.322V10.971H119.292V14.6076H127.323V20.1636ZM136.516 45.8219H120.252C117.828 45.8219 116.413 46.529 116.413 48.2463C116.413 49.9636 117.828 50.6708 120.252 50.6708H136.516C138.94 50.6708 140.355 49.9636 140.355 48.2463C140.355 46.529 138.94 45.8219 136.516 45.8219ZM115.151 32.1341H116.514C118.434 32.1341 119.949 31.3765 119.949 29.7602C119.949 28.1439 118.434 27.3863 116.514 27.3863H115.151C113.231 27.3863 111.716 28.1439 111.716 29.7602C111.716 31.3765 113.231 32.1341 115.151 32.1341Z" fill="url(#paint2_linear_352_681)"/>
<path d="M154.341 51.0748L149.947 46.2765C156.311 40.8216 161.968 35.7202 166.413 31.3765C167.726 30.0632 168.282 28.2954 168.282 25.669V20.1131H151.867V13.951H175.252V27.3358C175.252 30.8209 174.595 32.8412 172.626 34.8111C166.666 40.6701 160.908 45.7714 154.341 51.0748ZM188.839 56.6308H181.869V12.0317H188.839V27.7399H194.9V34.407H188.839V56.6308Z" fill="url(#paint3_linear_352_681)"/>
<path d="M226.817 56.5298H210.554C204.745 56.5298 200.502 53.0952 200.502 47.2362C200.502 41.3772 204.745 37.9426 210.554 37.9426H226.817C232.626 37.9426 236.869 41.3772 236.869 47.2362C236.869 53.0952 232.626 56.5298 226.817 56.5298ZM222.676 35.0131H197.623V12.6883H204.594V17.7897H215.705V12.6883H222.676V35.0131ZM235.707 36.6799H228.737V12.0317H235.707V20.6181H241.364V27.0327H235.707V36.6799ZM226.06 44.0036H211.311C208.887 44.0036 207.473 45.1148 207.473 47.2362C207.473 49.3575 208.887 50.4687 211.311 50.4687H226.06C228.484 50.4687 229.898 49.3575 229.898 47.2362C229.898 45.1148 228.484 44.0036 226.06 44.0036ZM215.705 29.0531V23.6487H204.594V29.0531H215.705Z" fill="url(#paint4_linear_352_681)"/>
</g>
<defs>
<linearGradient id="paint0_linear_352_681" x1="121" y1="60.2109" x2="121" y2="0.789062" gradientUnits="userSpaceOnUse">
<stop stop-color="#24A3B6"/>
<stop offset="1" stop-color="#5ECCDD"/>
</linearGradient>
<linearGradient id="paint1_linear_352_681" x1="121" y1="60.2109" x2="121" y2="0.789062" gradientUnits="userSpaceOnUse">
<stop stop-color="#24A3B6"/>
<stop offset="1" stop-color="#5ECCDD"/>
</linearGradient>
<linearGradient id="paint2_linear_352_681" x1="121" y1="60.2109" x2="121" y2="0.789062" gradientUnits="userSpaceOnUse">
<stop stop-color="#24A3B6"/>
<stop offset="1" stop-color="#5ECCDD"/>
</linearGradient>
<linearGradient id="paint3_linear_352_681" x1="121" y1="60.2109" x2="121" y2="0.789062" gradientUnits="userSpaceOnUse">
<stop stop-color="#24A3B6"/>
<stop offset="1" stop-color="#5ECCDD"/>
</linearGradient>
<linearGradient id="paint4_linear_352_681" x1="121" y1="60.2109" x2="121" y2="0.789062" gradientUnits="userSpaceOnUse">
<stop stop-color="#24A3B6"/>
<stop offset="1" stop-color="#5ECCDD"/>
</linearGradient>
</defs>
</svg>
